<?xml version="1.0" encoding="UTF-8"?>
<svg width="61.4mm" height="34mm" version="1.1" viewBox="0 0 61.42 34.02" xmlns="http://www.w3.org/2000/svg"><g transform="translate(0 -263)" fill="#94ac78"><path d="m18.8 297c0-6e-3 0.0736-0.0592 0.164-0.117 0.291-0.188 1.24-0.912 1.67-1.27 0.591-0.496 1.66-1.57 2.08-2.1 0.927-1.16 1.6-2.37 2.02-3.64 0.296-0.888 0.451-1.63 0.598-2.84 0.0881-0.733 0.101-2.34 0.101-12.6l3.2e-4 -10.6-25.4-2e-3 0.1-0.0821c0.055-0.0452 0.312-0.232 0.572-0.415l0.472-0.333h25.7l-3.4e-4 11.5c-2.3e-4 7.47-0.0122 11.6-0.0341 11.9-0.163 1.93-0.84 3.84-1.95 5.48-0.859 1.28-1.98 2.42-3.49 3.56-0.29 0.218-1.21 0.811-1.68 1.09-0.425 0.246-0.917 0.504-0.917 0.482zm-9.52-2.33c0.11-0.0156 0.32-0.0455 0.467-0.0665 1.53-0.219 2.19-0.772 2.53-2.13 0.236-0.938 0.301-1.89 0.295-4.27-3e-3 -1.07-0.0206-2.07-0.0403-2.26-0.0587-0.566-0.238-0.932-0.687-1.4-0.119-0.124-0.216-0.232-0.216-0.239 0-0.0365 0.307 0.036 0.435 0.103 0.255 0.133 0.638 0.541 0.782 0.835 0.0881 0.18 0.16 0.279 0.235 0.326 0.168 0.104 0.186 0.217 0.0948 0.615-0.0848 0.372-0.092 0.609-0.0489 1.6 0.0347 0.797 0.0328 1.09-0.0129 1.98-0.0526 1.03-0.0674 1.22-0.172 2.15-0.057 0.508-0.164 0.889-0.358 1.27-0.327 0.648-0.923 1.21-1.45 1.38-0.235 0.0731-1.03 0.132-1.7 0.126-0.333-3e-3 -0.34-5e-3 -0.15-0.0316zm7.63-0.0197c-0.128-5e-3 -0.406-0.0255-0.617-0.0448-0.342-0.0313-0.412-0.0494-0.65-0.167-0.147-0.0723-0.359-0.206-0.471-0.296-0.407-0.328-0.853-1.04-1.01-1.6-0.0677-0.244-0.145-0.793-0.185-1.32-0.0113-0.147-0.0348-0.402-0.0523-0.567-0.0652-0.616-0.0968-2.15-0.0608-2.95 0.0193-0.431 0.0338-1.05 0.0323-1.38-3e-3 -0.593-2e-3 -0.602 0.0888-0.772 0.0624-0.117 0.362-0.446 0.942-1.03 0.72-0.73 0.916-0.908 1.28-1.17 0.727-0.515 1.02-0.745 1.12-0.889l0.101-0.138-0.0231 0.215c-0.0375 0.348-0.0962 0.421-0.685 0.852-0.61 0.447-1.86 1.77-2.15 2.26-0.156 0.27-0.182 0.61-0.196 2.54-0.0121 1.65 2.3e-4 2.12 0.0791 2.98 0.157 1.72 0.567 2.59 1.42 3.02 0.367 0.186 0.789 0.294 1.53 0.392 0.2 0.0263 0.371 0.0558 0.381 0.0656 0.0172 0.0172-0.4 0.0148-0.877-5e-3zm28.4-7.96c0-4e-3 0.133-0.38 0.296-0.835l0.296-0.829-0.191-0.47c-0.745-1.83-0.803-1.96-1.14-2.51-0.109-0.179-0.118-0.209-0.0688-0.223 0.0773-0.0225 0.443-0.087 0.493-0.087 0.086 0 0.772 1.63 1.13 2.7 0.0246 0.0724 0.0409 0.0391 0.196-0.401 0.0799-0.227 0.215-0.599 0.3-0.827 0.148-0.397 0.368-1.13 0.391-1.3 0.01-0.0763 0.0326-0.0863 0.288-0.128 0.153-0.0249 0.284-0.0384 0.293-0.03 8e-3 8e-3 -0.0581 0.209-0.148 0.445-0.654 1.72-1.14 3.04-1.25 3.41-0.0373 0.122-0.107 0.402-0.155 0.622l-0.087 0.399-0.133 0.0215c-0.157 0.0254-0.516 0.0616-0.516 0.052zm-29.2-1.31c-0.034-0.233 0.201-1.02 0.406-1.36 0.247-0.409 0.604-0.663 0.934-0.665 0.228-2e-3 0.337 0.0526 0.409 0.203 0.0679 0.142 0.068 0.188 8.4e-4 0.451-0.119 0.467-0.366 0.787-0.824 1.07-0.255 0.158-0.915 0.37-0.926 0.298zm-5.28-0.104c-0.0174-0.0162-0.159-0.07-0.315-0.12-0.8-0.255-1.12-0.525-1.32-1.09-0.0464-0.138-0.0844-0.266-0.0844-0.284 0-0.0537 0.3-0.142 0.552-0.162 0.192-0.0154 0.263-7e-3 0.387 0.0482 0.261 0.116 0.357 0.281 0.635 1.09 0.0753 0.22 0.159 0.434 0.185 0.475 0.0475 0.0735 0.0183 0.104-0.0442 0.0456zm18.4-0.0883c-0.457-0.0768-0.42-0.047-0.42-0.336 0-0.206 9e-3 -0.25 0.0478-0.235 0.0263 0.0101 0.225 0.0508 0.442 0.0905 0.793 0.145 1.34 0.023 1.53-0.342 0.0258-0.0495 0.0467-0.177 0.0465-0.283-5.7e-4 -0.362-0.229-0.635-0.985-1.18-0.641-0.462-0.95-0.806-1.06-1.18-0.187-0.616 0.149-1.15 0.834-1.33 0.226-0.0588 0.668-0.0661 0.982-0.0163 0.354 0.0561 0.333 0.0364 0.333 0.322v0.252l-0.0917-0.0196c-0.0504-0.0108-0.204-0.0441-0.342-0.074-0.444-0.0968-0.969 8.2e-4 -1.13 0.211-0.109 0.138-0.139 0.309-0.0853 0.486 0.0757 0.251 0.336 0.51 0.969 0.964 0.513 0.367 0.828 0.685 0.976 0.986 0.116 0.234 0.124 0.272 0.124 0.553 0 0.256-0.0131 0.329-0.0871 0.485-0.159 0.334-0.448 0.55-0.871 0.65-0.256 0.0604-0.843 0.0601-1.21-7.8e-4zm3.57-0.0137c-0.69-0.221-1.1-0.898-1.1-1.82-2e-3 -0.562 0.138-0.948 0.457-1.27 0.284-0.282 0.637-0.418 1.09-0.418 0.747 0 1.27 0.366 1.51 1.06 0.0662 0.192 0.0771 0.289 0.0771 0.69 0 0.429-8e-3 0.488-0.096 0.737-0.181 0.511-0.537 0.875-0.995 1.02-0.259 0.0806-0.676 0.0793-0.933-3e-3zm0.947-0.492c0.378-0.212 0.576-0.639 0.574-1.24-1e-3 -0.605-0.202-1.01-0.596-1.22-0.174-0.089-0.23-0.101-0.482-0.1-0.245 4e-4 -0.31 0.0133-0.455 0.0895-0.207 0.108-0.362 0.28-0.477 0.525-0.0684 0.146-0.0888 0.248-0.0981 0.49-0.0289 0.746 0.284 1.38 0.758 1.53 0.241 0.0774 0.56 0.047 0.776-0.0739zm2.75 0.522c-0.415-0.104-0.884-0.495-1.08-0.905-0.262-0.535-0.311-1.24-0.12-1.71 0.171-0.419 0.561-0.747 1.03-0.871 0.221-0.0575 0.689-0.066 0.915-0.0166 0.33 0.0722 0.3 0.0436 0.3 0.283 0 0.119-0.0141 0.216-0.0313 0.216s-0.133-0.024-0.258-0.0533c-0.674-0.158-1.27 0.104-1.48 0.651-0.136 0.353-0.0904 0.878 0.111 1.28 0.263 0.526 0.892 0.825 1.46 0.694 0.082-0.0189 0.151-0.0315 0.154-0.028 3e-3 4e-3 0.0148 0.0984 0.0271 0.211 0.0193 0.177 0.0144 0.208-0.0373 0.229-0.0951 0.0393-0.847 0.0509-0.989 0.0152zm4.08-0.0155c-0.844-0.234-1.33-0.919-1.34-1.89-6e-3 -0.694 0.32-1.27 0.855-1.52 0.265-0.122 0.748-0.15 1.02-0.0604 0.563 0.185 0.904 0.688 0.952 1.41l0.0184 0.275-2.32 0.018 0.0113 0.148c0.0285 0.374 0.251 0.809 0.503 0.983 0.306 0.212 0.749 0.292 1.23 0.224 0.137-0.0193 0.253-0.031 0.258-0.0258 5e-3 5e-3 0.0187 0.0995 0.0303 0.21 0.0184 0.176 0.0134 0.203-0.0416 0.225-0.0344 0.0137-0.273 0.0311-0.529 0.0387-0.35 0.0104-0.512 1e-3 -0.65-0.0369zm0.967-2.25c0-0.135-0.147-0.451-0.273-0.588-0.283-0.307-0.805-0.327-1.16-0.0443-0.127 0.1-0.308 0.409-0.346 0.589l-0.0229 0.108h0.903c0.875 0 0.903-2e-3 0.903-0.0654zm2.03 2.27c-0.21-0.0411-0.432-0.171-0.52-0.303-0.166-0.251-0.179-0.359-0.179-1.54 0-0.601-9e-3 -1.12-0.0206-1.15-0.0177-0.0462-0.0621-0.0505-0.318-0.0311l-0.298 0.0225 0.0211-0.18c0.0319-0.271 0.018-0.26 0.323-0.27 0.254-9e-3 0.276-0.0153 0.27-0.0764-3e-3 -0.0367-0.01-0.156-0.0144-0.264l-8e-3 -0.197 0.264-0.111c0.145-0.061 0.268-0.111 0.274-0.111s2e-5 0.175-0.0127 0.388l-0.0232 0.388 0.712-0.0318-0.0207 0.153c-0.0386 0.285-0.0171 0.27-0.369 0.27h-0.316l0.0103 1.15c0.01 1.1 0.0133 1.15 0.079 1.24 0.12 0.161 0.232 0.221 0.449 0.243l0.205 0.0201 0.01 0.416-0.2-4e-3c-0.11-2e-3 -0.253-0.0142-0.318-0.0269zm-5.34-0.561c0.0511-0.961 3e-3 -2.33-0.0964-2.77-8e-3 -0.0353 0.0535-0.0581 0.239-0.0886 0.138-0.0225 0.281-0.0419 0.318-0.0431 0.0673-2e-3 0.0678 0.0104 0.0667 1.47-6.7e-4 0.811 0.0105 1.58 0.0247 1.7l0.0259 0.225h-0.604zm-24.8 0.262c-0.0733-0.0337-0.228-0.133-0.344-0.22-0.31-0.234-0.812-0.85-0.693-0.85 0.157 0 0.514 0.212 0.902 0.535 0.112 0.0933 0.232 0.165 0.276 0.165 0.19 0 0.795-0.771 0.943-1.2 0.0977-0.284 0.252-0.575 0.357-0.672l0.084-0.0779-0.0246 0.25c-0.0649 0.659-0.13 0.856-0.436 1.33-0.347 0.532-0.631 0.808-0.832 0.807-0.054-4e-4 -0.158-0.0283-0.232-0.062zm-5.61-1.21c0.0489-0.17 0.0363-0.53-0.0255-0.728-0.137-0.44-0.0127-1.15 0.262-1.5 0.146-0.185 0.383-0.321 0.615-0.353 0.14-0.0192 0.152-0.0155 0.135 0.0423-0.0438 0.148-0.0911 0.488-0.0751 0.54 0.0356 0.117 0.079 1.13 0.0557 1.3-0.0273 0.197-0.104 0.296-0.397 0.515-0.162 0.121-0.498 0.293-0.571 0.293-0.0177 0-0.0173-0.0446 9.5e-4 -0.108zm10.8-0.071c-0.348-0.257-0.688-0.716-0.802-1.09-0.119-0.382-0.0875-0.862 0.0697-1.07l0.0632-0.0831 0.154 0.0809c0.284 0.149 0.501 0.456 0.65 0.919 0.0618 0.192 0.078 0.333 0.091 0.792 0.0179 0.633 0.0207 0.628-0.225 0.446zm-7.92-0.219c-0.628-0.103-1.06-0.356-1.22-0.711-0.104-0.237-0.129-0.752-0.0501-1.06 0.0986-0.385 0.344-0.666 0.642-0.734 0.124-0.0285 0.424 2e-3 0.677 0.069 0.0642 0.017 0.264 0.0472 0.443 0.0672 0.373 0.0415 0.544 0.0938 0.702 0.214 0.253 0.193 0.38 0.646 0.344 1.22-0.0417 0.67-0.317 0.92-1.04 0.945-0.183 6e-3 -0.408-9.4e-4 -0.5-0.0159zm3.17-0.348c-0.0399-0.315 0.0392-1.32 0.134-1.7 0.187-0.756 0.518-1.15 0.969-1.15 0.121-2.3e-4 0.156 0.0575 0.216 0.364 0.0535 0.272 0.0229 0.669-0.0709 0.918-0.156 0.414-0.607 1.09-1.04 1.57l-0.183 0.2zm1.75-0.0792c-0.0983-0.258-0.14-0.546-0.139-0.962 1e-3 -0.588 0.0429-0.647 0.121-0.172 0.0866 0.527 0.154 0.73 0.263 0.791 0.0845 0.0474 0.104 0.0423 0.39-0.104 0.166-0.0845 0.301-0.144 0.301-0.133-5e-3 0.0963-0.74 0.671-0.858 0.671-0.0236 0-0.0586-0.0413-0.0778-0.0917zm-2.87-0.909c-0.0103-0.339-0.0331-0.766-0.0507-0.949-0.0399-0.416-6.9e-4 -0.835 0.0968-1.04 0.0935-0.193 0.221-0.261 0.441-0.235 0.383 0.0454 0.615 0.32 0.582 0.689-0.0206 0.227-0.214 0.813-0.37 1.12-0.114 0.227-0.442 0.733-0.599 0.925l-0.0812 0.0992zm7.09 0.318c-0.289-0.0861-0.561-0.294-0.756-0.577-0.245-0.357-0.398-0.989-0.326-1.35 0.053-0.269 0.109-0.369 0.273-0.488 0.208-0.151 0.327-0.172 0.622-0.111 0.317 0.0655 0.498 0.0455 0.954-0.105 0.504-0.167 0.661-0.15 0.851 0.0908 0.229 0.291 0.281 0.688 0.171 1.32-0.118 0.681-0.247 0.924-0.576 1.09-0.146 0.0725-0.219 0.0864-0.458 0.0867-0.157 2.3e-4 -0.361 0.0205-0.453 0.045-0.133 0.0354-0.195 0.0364-0.3 5e-3zm-14.1-0.415c-0.0605-0.0155-0.117-0.0351-0.125-0.0434-8e-3 -8e-3 0.0584-0.0772 0.148-0.153 0.0899-0.0758 0.289-0.269 0.442-0.43s0.422-0.435 0.598-0.609c0.484-0.479 0.888-0.667 1.44-0.667h0.26l-0.135 0.122c-0.0741 0.0669-0.283 0.318-0.464 0.558-0.813 1.08-1 1.22-1.7 1.24-0.192 7e-3 -0.4-8.4e-4 -0.46-0.0164zm11.2-0.182c-0.505-0.152-0.857-0.41-1.02-0.748-0.0855-0.174-0.0932-0.221-0.0918-0.557 1e-3 -0.323 0.0118-0.389 0.0876-0.55 0.0967-0.206 0.271-0.388 0.494-0.513 0.389-0.22 0.45-0.224 0.649-0.0497 0.172 0.151 0.442 0.573 0.505 0.789 0.0911 0.314 0.0498 0.667-0.143 1.22-0.0887 0.256-0.176 0.468-0.195 0.473-0.0183 5e-3 -0.146-0.0253-0.283-0.0667zm21.3-1.04c-1e-3 -0.126-0.0136-0.3-0.0278-0.386-0.031-0.188-0.0234-0.193 0.299-0.193h0.231v0.767l-0.125 3.7e-4c-0.0687 2e-4 -0.181 0.01-0.25 0.021l-0.125 0.0207-2e-3 -0.229zm-26.4-0.175c-0.433-0.142-0.545-0.195-0.787-0.373-0.205-0.151-0.357-0.336-0.451-0.55-0.0827-0.187-0.0734-0.472 0.0231-0.71l0.0593-0.146 0.27 0.0194c0.54 0.0388 0.815 0.205 1.05 0.635 0.141 0.255 0.216 0.536 0.26 0.98 0.0186 0.188 0.0161 0.274-8e-3 0.273-0.0194-1e-3 -0.208-0.0584-0.419-0.127zm-2.75-0.0866c0.0698-0.558 0.388-1.15 0.826-1.53 0.096-0.084 0.196-0.153 0.222-0.153 0.105 0-0.0572 0.742-0.252 1.16-0.112 0.237-0.342 0.466-0.615 0.612l-0.204 0.108zm-3.08-0.44c0-0.538 0.0379-0.779 0.145-0.926 0.0437-0.0598 0.0572-0.061 0.189-0.0177 0.389 0.128 0.585 0.447 0.491 0.8-0.0424 0.159-0.103 0.219-0.374 0.371-0.128 0.0719-0.282 0.17-0.342 0.217l-0.108 0.0866zm-1.48-0.0318c-0.0733-8e-3 -0.242-0.0375-0.374-0.0661l-0.241-0.0521 0.196-0.233c0.108-0.128 0.244-0.333 0.302-0.455 0.194-0.409 0.468-0.604 0.886-0.631 0.215-0.0141 0.244-8e-3 0.333 0.069 0.092 0.0792 0.0978 0.0986 0.0932 0.312-3e-3 0.125-0.0287 0.339-0.0578 0.475-0.0597 0.28-0.152 0.406-0.371 0.505-0.137 0.062-0.531 0.101-0.767 0.0764zm13.7-0.359c-0.0935-0.23-0.26-0.424-0.492-0.573-0.24-0.153-0.832-0.729-0.912-0.887-0.078-0.153-0.0821-0.411-0.01-0.592 0.0295-0.0737 0.0615-0.134 0.0711-0.134 0.01 0 0.0679 0.0312 0.13 0.0693 0.0715 0.0442 0.28 0.0981 0.575 0.149 0.866 0.149 0.904 0.165 1.01 0.408 0.0583 0.132 0.0655 0.199 0.0504 0.472-0.01 0.175-0.0428 0.408-0.0736 0.518-0.0993 0.355-0.222 0.716-0.25 0.733-0.0148 9e-3 -0.0599-0.0644-0.1-0.164zm-4.32-0.0328c-0.436-0.108-0.725-0.372-0.849-0.775-0.134-0.433-0.0595-1.16 0.152-1.48 0.209-0.316 0.664-0.398 1.24-0.223 0.273 0.0825 0.329 0.0895 0.456 0.0574 0.261-0.0656 0.55-0.0465 0.741 0.049 0.349 0.174 0.446 0.395 0.377 0.864-0.0836 0.571-0.317 1.15-0.524 1.3-0.293 0.214-1.12 0.318-1.59 0.2zm-6.18-0.339c-0.495-0.108-0.736-0.297-0.845-0.662-0.0505-0.17-0.127-0.627-0.127-0.764-9.2e-4 -0.193 0.0945-0.524 0.185-0.644 0.187-0.246 0.759-0.398 1.38-0.368 0.678 0.0335 1.02 0.223 1.24 0.687 0.1 0.213 0.122 0.583 0.0488 0.808-0.135 0.413-0.514 0.786-0.942 0.926-0.247 0.081-0.612 0.0874-0.937 0.0164zm14.4-0.0175c-0.678-0.0633-0.949-0.124-1.32-0.295-0.415-0.193-0.801-0.327-1.02-0.356-0.283-0.0368-0.277-0.0603 0.0597-0.221 0.372-0.178 0.549-0.224 0.855-0.224 0.583 0 1.53 0.459 1.73 0.836 0.0507 0.098 0.067 0.301 0.0236 0.293-0.0137-2e-3 -0.16-0.0171-0.325-0.0325zm-9.96-0.647c-0.0321-0.043-0.156-0.126-0.275-0.185-0.2-0.0984-0.247-0.108-0.616-0.119-0.476-0.0149-0.695-0.0829-0.896-0.278-0.175-0.169-0.214-0.251-0.316-0.651-0.0466-0.183-0.168-0.565-0.27-0.849s-0.185-0.519-0.185-0.522 0.0821 0.0228 0.182 0.0581c0.1 0.0353 0.211 0.0641 0.246 0.0641 0.105 0 0.666 0.196 0.903 0.315 0.474 0.239 0.784 0.592 1.04 1.18 0.128 0.298 0.279 0.876 0.259 0.995-0.011 0.0666-0.0129 0.0663-0.0696-0.01zm22.2-0.0516c-0.467-0.0694-0.889-0.389-1.11-0.844-0.128-0.26-0.237-0.743-0.236-1.05 0-0.269 0.103-0.686 0.224-0.91 0.475-0.875 1.79-1.03 2.49-0.288 0.337 0.353 0.472 0.788 0.44 1.41-0.02 0.391-0.0652 0.578-0.208 0.863-0.302 0.602-0.924 0.922-1.6 0.822zm0.59-0.483c0.308-0.105 0.562-0.43 0.663-0.848 0.0691-0.287 0.0527-0.776-0.0345-1.03-0.174-0.511-0.476-0.735-0.988-0.735-0.457 0-0.726 0.164-0.921 0.559-0.107 0.218-0.11 0.235-0.108 0.641 3e-3 0.752 0.217 1.19 0.688 1.4 0.177 0.0805 0.489 0.0872 0.701 0.015zm8.82 0.483c-0.505-0.0748-1-0.451-1.24-0.931-0.175-0.364-0.226-0.593-0.227-1.02-1e-3 -0.581 0.157-0.96 0.521-1.25 0.42-0.335 1.03-0.444 1.67-0.299l0.175 0.0394v0.455l-0.175-0.0466c-0.0964-0.0257-0.332-0.0467-0.525-0.0469-0.316-3.4e-4 -0.369 9e-3 -0.55 0.0944-0.373 0.177-0.584 0.501-0.609 0.939-0.0394 0.679 0.278 1.28 0.809 1.52 0.172 0.0797 0.242 0.0929 0.5 0.0933 0.165 2.3e-4 0.349-0.0106 0.41-0.024l0.11-0.0245-0.01 0.222c-9e-3 0.205-0.0162 0.224-0.0932 0.244-0.158 0.0418-0.584 0.0583-0.774 0.03zm2.47 3e-3c-0.421-0.0745-0.715-0.357-0.869-0.834-0.0624-0.193-0.073-0.334-0.0961-1.28-0.0143-0.587-0.0363-1.11-0.0489-1.17-0.0225-0.103-0.0204-0.105 0.139-0.139 0.089-0.0188 0.231-0.0442 0.315-0.0565l0.153-0.0224-0.0315 0.211c-0.0526 0.354-0.0492 1.91 5e-3 2.15 0.101 0.457 0.359 0.707 0.727 0.707 0.218 0 0.391-0.0812 0.543-0.255 0.263-0.3 0.352-0.754 0.319-1.63-0.0123-0.33-0.0335-0.708-0.047-0.841-0.0243-0.239-0.024-0.241 0.06-0.257 0.244-0.048 0.509-0.0884 0.519-0.0789 6e-3 6e-3 -4e-3 0.183-0.023 0.394-0.0193 0.218-0.0265 0.842-0.0167 1.45 0.0151 0.942 0.0306 1.16 0.106 1.47 0.0171 0.0723 9e-3 0.075-0.213 0.075h-0.231l-0.0361-0.168c-0.0199-0.0926-0.0361-0.19-0.0361-0.217s-4e-3 -0.0484-0.01-0.0484c-5e-3 0-0.107 0.0953-0.227 0.212-0.156 0.152-0.263 0.227-0.382 0.265-0.22 0.0708-0.432 0.0905-0.618 0.0575zm6.69-2e-3c-0.359-0.0611-0.617-0.27-0.792-0.639-0.133-0.281-0.16-0.514-0.182-1.58-0.0108-0.513-0.0281-0.988-0.0384-1.06l-0.0189-0.122 0.178-0.0352c0.0981-0.0193 0.235-0.045 0.305-0.0571l0.127-0.022-0.0271 0.379c-0.0149 0.208-0.0267 0.709-0.0262 1.11 6.6e-4 0.59 0.0122 0.776 0.059 0.95 0.112 0.417 0.347 0.632 0.69 0.632 0.41-4.1e-4 0.677-0.259 0.814-0.789 0.0605-0.234 0.0743-1.57 0.0201-1.94-0.0171-0.118-0.0268-0.22-0.0215-0.225 0.0175-0.0175 0.59-0.118 0.601-0.105 6e-3 7e-3 -3e-3 0.132-0.0202 0.279-0.0489 0.425-0.0117 2.66 0.0485 2.91l0.0497 0.208h-0.452l-0.0393-0.175c-0.0216-0.0962-0.0452-0.194-0.0524-0.217-8e-3 -0.0247-0.0718 0.0219-0.156 0.113-0.295 0.32-0.656 0.448-1.07 0.378zm5.34 2e-3c-0.533-0.0939-0.866-0.511-0.866-1.09 0-0.573 0.304-0.947 0.95-1.17 0.231-0.0795 0.327-0.0929 0.717-0.101 0.511-0.0101 0.507-7e-3 0.418-0.274-0.0747-0.225-0.264-0.388-0.523-0.45-0.167-0.0399-0.746-0.0271-0.97 0.0216l-0.225 0.0487v-0.484l0.331-0.0421c1.05-0.133 1.73 0.169 1.86 0.819 0.0217 0.108 0.0394 0.496 0.0401 0.879 1e-3 0.679 0.0394 1.42 0.084 1.63l0.0231 0.108h-0.439l-0.0319-0.125c-0.0175-0.0688-0.0423-0.176-0.055-0.238l-0.0231-0.113-0.0801 0.102c-0.266 0.34-0.797 0.548-1.21 0.475zm0.65-0.516c0.292-0.142 0.453-0.332 0.553-0.654 0.0857-0.276 0.0887-0.716 5e-3 -0.759-0.194-0.0994-0.811-0.0568-1.07 0.0737-0.387 0.198-0.589 0.607-0.471 0.957 0.138 0.411 0.57 0.58 0.979 0.382zm-19 0.433c-0.237-0.0973-0.288-0.142-0.398-0.344-0.135-0.25-0.158-0.474-0.158-1.57 0-0.562-6e-3 -1.03-0.0139-1.04-8e-3 -8e-3 -0.137-6e-3 -0.287 3e-3s-0.277 9e-3 -0.283 0-3.7e-4 -0.107 0.0115-0.217l0.0216-0.2 0.277-0.01 0.278-0.01-0.0108-0.265c-6e-3 -0.146-0.0104-0.265-0.01-0.265 5.7e-4 4e-5 0.124-0.0519 0.275-0.116l0.274-0.116-0.022 0.384-0.0219 0.384 0.347-6e-3c0.242-4e-3 0.346 5e-3 0.344 0.0313-2e-3 0.0208-6e-3 0.112-8e-3 0.203l-5e-3 0.165-0.65 0.02v1.13c0 1.03 5e-3 1.14 0.0605 1.24 0.0753 0.138 0.283 0.237 0.498 0.238l0.158 7.3e-4v0.433l-0.242-7.9e-4c-0.177-5.8e-4 -0.293-0.0221-0.436-0.0808zm11 0.0215c-0.236-0.0816-0.356-0.177-0.456-0.362-0.13-0.242-0.16-0.541-0.16-1.62 0-0.539-6e-3 -0.986-0.0139-0.994-8e-3 -8e-3 -0.137-6e-3 -0.287 3e-3s-0.277 9e-3 -0.283 0-3.7e-4 -0.107 0.0115-0.217l0.0216-0.2 0.548-0.02 0.02-0.546 0.516-0.216-0.0438 0.768 0.347-6e-3c0.242-4e-3 0.346 5e-3 0.344 0.0313-2e-3 0.0208-6e-3 0.112-8e-3 0.203l-5e-3 0.165-0.65 0.02v1.12c0 1.05 4e-3 1.12 0.0667 1.25 0.0799 0.16 0.196 0.222 0.467 0.247l0.2 0.0192 0.02 0.416-0.243-1e-3c-0.142-6.4e-4 -0.313-0.0253-0.411-0.059zm-47.1-0.111c0.094-0.162 0.726-0.909 0.884-1.05 0.269-0.231 0.801-0.438 1.49-0.58 0.488-0.1 0.506-0.102 0.486-0.0485-0.01 0.0258-0.0421 0.133-0.0714 0.237-0.0796 0.284-0.182 0.576-0.249 0.707-0.173 0.34-0.553 0.488-1.42 0.549-0.334 0.0237-0.742 0.115-0.973 0.217-0.204 0.0902-0.224 0.0853-0.154-0.0367zm25.4-2c0-1.85-6e-3 -2.1-0.0583-2.34-0.0321-0.144-0.0583-0.268-0.0583-0.275s0.158-0.0131 0.35-0.0131h0.35v1.97h2.37l-6e-4 -0.558c-5.3e-4 -0.494-0.0257-0.766-0.119-1.28l-0.0225-0.125h0.692v4.7l-0.566 6e-5 0.0214-2.3h-2.37l0.018 2.3-0.6-3e-5v-2.08zm7.6 0.833c0-1.09-8e-3 -1.28-0.0625-1.54-0.0343-0.165-0.0823-0.355-0.107-0.424-0.0242-0.0687-0.0336-0.131-0.0209-0.138 0.0128-7e-3 0.129-0.0233 0.259-0.0357l0.236-0.0224 0.0444 0.193c0.0244 0.106 0.0556 0.206 0.0692 0.222 0.0137 0.0157 0.0804-0.0329 0.148-0.108 0.187-0.207 0.484-0.339 0.813-0.362l0.27-0.0185v0.438l-0.192 0.0216c-0.453 0.051-0.705 0.188-0.851 0.461-0.0718 0.134-0.074 0.169-0.074 1.14 0 0.55 0.011 1.09 0.0245 1.21l0.0245 0.208-0.291 1e-5h-0.291zm4.53 1.17c0.0139-0.0412 0.0314-0.578 0.0388-1.19 0.0116-0.952 4e-3 -1.18-0.0481-1.58l-0.0617-0.459 0.0684-0.0154c0.0894-0.02 0.492-0.082 0.535-0.0824 0.0218-1.6e-4 0.0333 0.552 0.0333 1.59 0 0.875 0.0109 1.64 0.0242 1.7l0.0242 0.108h-0.32c-0.317 0-0.319-6.7e-4 -0.294-0.075zm7.36-0.183c0.035-0.411 0.0505-3.47 0.0189-3.72-0.0755-0.615-0.104-0.993-0.0776-1.02 0.016-0.016 0.156-0.0388 0.312-0.0508l0.282-0.0217v2.35c0 1.29 0.0114 2.43 0.0253 2.54l0.0253 0.192h-0.608zm6.96 0.1c0.0108-0.0871 0.0287-0.548 0.0397-1.02 0.0178-0.768 0.0123-0.918-0.0477-1.32-0.0373-0.248-0.0967-0.537-0.132-0.642-0.0354-0.106-0.055-0.198-0.0436-0.204s0.128-0.0219 0.258-0.0343l0.238-0.0226 0.0591 0.218c0.0325 0.12 0.0644 0.218 0.0709 0.218 6e-3 0 0.0659-0.0599 0.132-0.133 0.183-0.203 0.483-0.336 0.807-0.358l0.267-0.0183 0.0114 0.221c0.0104 0.202 6e-3 0.221-0.0553 0.224-0.501 0.0173-0.819 0.177-0.972 0.489l-0.0945 0.192v0.75c0 0.412 0.0115 0.941 0.0255 1.18l0.0255 0.425h-0.608zm5.2-0.05c0.0199-0.122 0.0349-0.947 0.0362-1.99 2e-3 -1.55-6e-3 -1.85-0.0603-2.28-0.0353-0.28-0.0498-0.506-0.0333-0.521 0.016-0.0148 0.157-0.0401 0.312-0.0562l0.283-0.0293v2.28c0 1.26 0.0111 2.4 0.0246 2.54l0.0246 0.258h-0.621zm-40.1-0.456c-0.153-0.0468-0.448-0.209-0.589-0.323-0.151-0.123-0.259-0.277-0.295-0.421l-0.0229-0.0917h0.302c0.376 0 0.599-0.0449 0.855-0.173 0.11-0.0548 0.268-0.121 0.35-0.146 0.353-0.11 0.919-0.0154 1.51 0.253l0.163 0.0736-0.296 0.125c-0.163 0.0686-0.349 0.154-0.413 0.191-0.886 0.5-1.24 0.614-1.57 0.513zm-1.62-0.342c-0.267-0.204-0.564-0.309-1.21-0.427-0.118-0.0214-0.268-0.0663-0.333-0.0997-0.253-0.13-0.478-0.434-0.586-0.794-0.0561-0.186-0.102-0.688-0.0618-0.668 0.517 0.246 0.686 0.303 1.12 0.38 0.146 0.0257 0.335 0.08 0.42 0.121 0.213 0.102 0.481 0.386 0.6 0.635 0.119 0.25 0.212 0.636 0.198 0.821l-0.0104 0.134zm-6-1.09c0.496-0.677 0.718-0.921 1.09-1.21 0.469-0.354 0.993-0.673 1.03-0.631 0.0256 0.0256-0.446 1.07-0.562 1.25-0.209 0.315-0.687 0.577-1.39 0.764-0.177 0.0469-0.331 0.0853-0.343 0.0853-0.0117 0 0.0639-0.116 0.168-0.258zm2.29 0.195c-0.0567-0.0346-0.167-0.124-0.246-0.199-0.134-0.128-0.142-0.145-0.125-0.275 0.0242-0.181 0.19-0.418 0.51-0.731 0.288-0.281 0.474-0.529 0.719-0.956 0.0922-0.161 0.178-0.304 0.19-0.317 0.0339-0.036-0.0222 0.713-0.0799 1.07-0.0922 0.564-0.299 1.11-0.519 1.36-0.0832 0.0948-0.128 0.118-0.225 0.118-0.0669-7e-5 -0.168-0.0284-0.225-0.063zm-10.9-0.192c-0.142-0.0356-0.306-0.0454-0.566-0.0342l-0.366 0.0158 0.249-0.238c0.29-0.277 0.568-0.468 0.849-0.585 0.264-0.109 0.812-0.133 1.34-0.0572 0.2 0.0287 0.48 0.0624 0.623 0.0748l0.26 0.0225-0.0764 0.0823c-0.126 0.135-0.999 0.7-1.14 0.739-0.194 0.0525-0.928 0.0404-1.17-0.0192zm15.3-0.0507c-0.306-0.0531-0.781-0.51-0.869-0.836-0.128-0.473 0.188-1.08 0.696-1.34 0.237-0.12 0.395-0.149 0.64-0.115 0.178 0.0243 0.266 0.0156 0.558-0.0548 0.41-0.0988 0.642-0.105 0.826-0.021 0.167 0.076 0.386 0.32 0.507 0.567 0.0786 0.16 0.092 0.229 0.092 0.471-3e-5 0.245-0.013 0.309-0.0953 0.474-0.186 0.374-0.573 0.707-0.936 0.808-0.194 0.0536-1.19 0.0852-1.42 0.0451zm-8.23-0.182c-0.207-0.0321-0.396-0.0894-0.55-0.166-0.413-0.206-0.533-0.48-0.533-1.21 0-0.402 8e-3 -0.469 0.079-0.625 0.0922-0.204 0.277-0.383 0.455-0.442 0.156-0.0516 0.395-0.029 0.719 0.0682 0.211 0.0632 0.267 0.0685 0.389 0.0363 0.196-0.0519 0.426-0.0471 0.539 0.0113 0.149 0.0772 0.36 0.341 0.437 0.546 0.267 0.714 0.0844 1.34-0.473 1.62-0.283 0.143-0.731 0.21-1.06 0.159zm-3.56-0.184c-0.21-0.111-0.287-0.235-0.286-0.46 2e-3 -0.274 0.127-0.487 0.527-0.895 0.486-0.497 1-0.897 1.52-1.18 0.224-0.121 0.6-0.274 0.6-0.243 0 0.01-0.0354 0.0881-0.0787 0.175-0.098 0.196-0.238 0.626-0.289 0.891-0.0822 0.422-0.366 0.908-0.763 1.31-0.301 0.304-0.564 0.444-0.869 0.463-0.178 0.0111-0.242 0-0.362-0.063zm9.36-0.81c-0.534-0.197-0.585-0.62-0.131-1.09 0.18-0.184 0.521-0.364 0.847-0.445 0.299-0.0748 0.773-0.152 0.934-0.152h0.142l-0.102 0.108c-0.116 0.123-0.353 0.484-0.433 0.658-0.0292 0.0642-0.091 0.203-0.137 0.308-0.284 0.645-0.582 0.807-1.12 0.609zm-11.3-0.256c-0.415-0.0708-0.733-0.445-0.905-1.07-0.168-0.607-0.0293-1.11 0.355-1.29 0.146-0.0686 0.189-0.0729 0.527-0.0523 0.313 0.019 0.4 0.0126 0.584-0.0429 0.343-0.103 0.39-0.109 0.555-0.0676 0.322 0.081 0.505 0.387 0.596 0.992 0.102 0.679-0.0961 1.18-0.583 1.46-0.139 0.0821-0.176 0.0878-0.572 0.0889-0.233 6.2e-4 -0.483-9e-3 -0.557-0.0216zm-1.77-0.163c-0.127-0.0379-0.387-0.075-0.627-0.0893l-0.41-0.0245 0.185-0.224c0.296-0.359 0.731-0.643 1.02-0.667 0.11-9e-3 0.116-4e-3 0.105 0.0847-0.0239 0.203 0.108 0.581 0.286 0.818 0.0681 0.0908 0.0753 0.117 0.0379 0.141-0.0766 0.0485-0.366 0.0294-0.596-0.0393zm37-0.539c6e-3 -0.0596-2e-3 -0.228-0.0188-0.375s-0.0272-0.271-0.0232-0.276 0.129-0.0184 0.279-0.0299l0.272-0.0209v0.767l-0.175 0.021c-0.331 0.0397-0.346 0.0356-0.333-0.0867zm-27.7-0.111c0-0.171 0.287-0.667 0.544-0.939 0.448-0.475 1.23-0.837 1.89-0.879l0.183-0.0118-2e-3 0.219c-5e-3 0.438-0.319 0.887-0.834 1.19-0.323 0.192-0.524 0.256-1.1 0.354-0.272 0.0463-0.536 0.0913-0.587 0.1-0.0672 0.0117-0.0917 2e-3 -0.0917-0.0354zm6.8-0.745c-0.157-0.0444-0.259-0.0549-0.358-0.0367-0.162 0.0296-0.172 6e-3 -0.0688-0.166 0.0944-0.158 0.205-0.25 0.427-0.356 0.16-0.0766 0.241-0.0913 0.57-0.104 0.266-0.01 0.47 2e-3 0.666 0.0389 0.309 0.0583 0.901 0.226 0.901 0.256 1.3e-4 0.0263-0.657 0.256-0.961 0.336-0.368 0.0969-0.894 0.111-1.18 0.0311zm15.9-0.256c0.0661-0.181 0.201-0.559 0.299-0.838l0.179-0.509-0.168-0.408c-0.0923-0.224-0.28-0.683-0.417-1.02-0.265-0.653-0.446-1.03-0.693-1.46-0.0844-0.146-0.153-0.274-0.153-0.283 0-0.01 0.0937-0.0354 0.208-0.0574 0.115-0.022 0.24-0.0476 0.279-0.0569 0.0601-0.0143 0.0866 0.0172 0.177 0.211 0.247 0.527 0.431 0.971 0.7 1.7 0.157 0.422 0.3 0.77 0.319 0.772 0.0392 4e-3 0.0333 0.0193 0.401-1.01 0.158-0.439 0.331-0.971 0.386-1.18 0.0543-0.211 0.103-0.387 0.108-0.392 8e-3 -8e-3 0.517-0.111 0.547-0.111 0.0361-3e-5 0.0299 0.0173-0.531 1.48-0.172 0.45-0.7 1.91-0.826 2.28-0.0715 0.212-0.21 0.77-0.249 1.01-0.0228 0.136-0.047 0.146-0.458 0.184l-0.228 0.0212zm-19.5 0.0857c-0.0306-0.0179-0.0814-0.0999-0.113-0.182-0.113-0.296-3e-3 -0.605 0.333-0.933 0.293-0.287 1.15-0.851 1.15-0.757 0 0.0893-0.359 1.09-0.468 1.31-0.243 0.481-0.376 0.6-0.665 0.599-0.101-4.3e-4 -0.208-0.0154-0.239-0.0333zm-8.2-0.209c-0.559-0.19-0.796-0.53-0.796-1.14 0-0.284 0.059-0.525 0.209-0.85 0.114-0.247 0.0923-0.267 0.257 0.25 0.113 0.355 0.202 0.506 0.512 0.871 0.162 0.191 0.522 0.825 0.522 0.92 0 0.0579-0.488 0.0221-0.704-0.0518zm4.72-0.137c0.192-0.319 0.237-0.513 0.234-1.02-2e-3 -0.469-0.0434-0.657-0.221-1.01-0.0354-0.0705-0.0579-0.135-0.0499-0.143 0.0243-0.0243 0.863 0.412 1.03 0.535 0.245 0.182 0.346 0.336 0.34 0.517-0.0153 0.441-0.448 0.926-1.04 1.17-0.12 0.0492-0.257 0.0988-0.307 0.11l-0.0892 0.0208zm4.86 0.043c9e-3 -0.025 0.0442-0.124 0.0782-0.22 0.0765-0.216 0.257-0.46 0.433-0.582 0.0731-0.0511 0.35-0.176 0.616-0.278 0.465-0.178 1.03-0.456 1.29-0.632 0.0679-0.0461 0.128-0.0698 0.134-0.0526 0.0197 0.0591-0.198 0.653-0.318 0.869-0.163 0.293-0.452 0.576-0.715 0.7-0.175 0.0828-0.253 0.0998-0.461 0.1-0.236 6e-4 -0.875 0.0764-1.01 0.12-0.0449 0.0142-0.0588 7e-3 -0.0472-0.0253zm-5.96-0.126c-0.371-0.203-0.674-0.428-0.965-0.718-0.249-0.248-0.329-0.355-0.447-0.594-0.124-0.251-0.146-0.329-0.159-0.556-0.0208-0.36-1e-3 -0.421 0.151-0.473 0.198-0.068 0.626-0.0507 0.847 0.0343 0.473 0.182 0.782 0.497 0.914 0.933 0.0546 0.18 0.0623 0.728 0.0129 0.921-0.0657 0.257-0.141 0.5-0.162 0.524-0.0115 0.0129-0.0982-0.0188-0.193-0.0704zm-1.68-0.206c-0.119-0.0716-0.314-0.162-0.433-0.2-0.292-0.0949-0.528-0.21-0.673-0.33-0.253-0.209-0.494-0.688-0.494-0.983 0-0.174 0.077-0.436 0.153-0.52 0.216-0.239 0.709 0.163 1.15 0.941 0.258 0.451 0.599 1.23 0.534 1.23-0.0136-2e-3 -0.122-0.0618-0.241-0.133zm-6.4-0.248c0-0.129 0.114-0.484 0.237-0.741 0.182-0.378 0.46-0.661 0.817-0.831 0.24-0.114 0.292-0.126 0.603-0.138 0.427-0.0159 0.613 0.0426 0.864 0.272 0.33 0.301 0.413 0.769 0.157 0.886-0.109 0.0495-0.222 0.0467-0.576-0.0143-0.581-0.1-1.2 0.0684-1.96 0.535-0.119 0.0732-0.142 0.0782-0.142 0.0314zm29.4-0.348c-0.267-0.0484-0.578-0.215-0.773-0.415-0.213-0.218-0.358-0.501-0.454-0.883-0.1-0.398-0.0783-0.949 0.0505-1.29 0.161-0.424 0.457-0.721 0.883-0.886 0.151-0.0588 0.256-0.0726 0.554-0.0727 0.319-7e-5 0.397 0.0117 0.598 0.0896 0.484 0.188 0.777 0.522 0.936 1.07 0.0739 0.254 0.054 1.09-0.0313 1.31-0.188 0.498-0.51 0.839-0.947 1.01-0.203 0.0773-0.584 0.108-0.815 0.0665zm0.736-0.54c0.383-0.183 0.572-0.544 0.598-1.15 0.0228-0.518-0.0842-0.871-0.343-1.13-0.312-0.312-0.817-0.388-1.22-0.183-0.309 0.158-0.535 0.568-0.55 0.998-0.0293 0.825 0.332 1.45 0.898 1.56 0.202 0.0391 0.378 9e-3 0.615-0.104zm4.94 0.519c-0.373-0.1-0.599-0.326-0.714-0.714-0.131-0.44 5e-3 -0.915 0.344-1.21 0.324-0.277 0.739-0.405 1.33-0.407l0.408-1e-3v-0.0939c0-0.0517-0.0233-0.15-0.0518-0.218-0.128-0.308-0.412-0.447-0.915-0.448-0.174-5.4e-4 -0.377 0.0144-0.45 0.0332-0.0733 0.0188-0.175 0.0435-0.225 0.0549l-0.0917 0.0206v-0.232c0-0.128 0.0124-0.24 0.0275-0.249s0.193-0.035 0.396-0.057c0.634-0.0688 1.15 0.0401 1.45 0.305 0.306 0.269 0.353 0.493 0.359 1.72 4e-3 0.776 0.0288 1.18 0.0838 1.36 0.0163 0.0517-8e-3 0.0583-0.213 0.0583h-0.232l-0.0409-0.217c-0.0225-0.119-0.05-0.217-0.0611-0.217s-0.0957 0.0737-0.188 0.164c-0.201 0.196-0.361 0.289-0.611 0.354-0.23 0.0599-0.369 0.0588-0.606-5e-3zm0.774-0.488c0.188-0.0789 0.402-0.301 0.5-0.518 0.054-0.12 0.0741-0.245 0.0852-0.529l0.0145-0.372-0.192-0.0239c-0.513-0.0641-1.01 0.0663-1.23 0.324-0.28 0.328-0.242 0.869 0.077 1.08 0.236 0.156 0.441 0.167 0.744 0.04zm1.78 0.0331c0.0147-0.206 0.0268-1.1 0.0268-1.98 0-1.35-0.01-1.68-0.0613-2.11-0.0337-0.282-0.0487-0.524-0.0333-0.538 0.0154-0.0141 0.155-0.0354 0.311-0.0473l0.283-0.0218v2.21c0 1.22 0.0115 2.36 0.0257 2.53l0.0257 0.325h-0.605zm-12.6-1.7c0-1.82-6e-3 -2.07-0.0583-2.3-0.0321-0.144-0.0583-0.273-0.0583-0.287 0-0.026 0.909-0.0727 1.39-0.0714 0.83 2e-3 1.41 0.447 1.47 1.12 0.0415 0.517-0.247 0.965-0.788 1.23-0.121 0.0582-0.224 0.109-0.23 0.112-0.0176 0.0111 0.453 0.774 0.696 1.13 0.13 0.19 0.369 0.515 0.531 0.724l0.295 0.379-0.351 0.01c-0.305 8e-3 -0.358 2e-3 -0.397-0.05-0.213-0.275-0.78-1.18-1.14-1.82l-0.142-0.254h-0.673l0.0268 2.14h-0.569zm1.43-0.592c0.276-0.0853 0.501-0.238 0.634-0.429 0.0994-0.143 0.107-0.174 0.107-0.426 0-0.254-7e-3 -0.28-0.103-0.4-0.22-0.273-0.709-0.415-1.26-0.363l-0.258 0.0243v1.66l0.075 0.0165c0.14 0.0309 0.588-0.013 0.8-0.0784zm-14.7 2.54c-0.347-0.0424-0.74-0.207-0.916-0.382-0.146-0.146-0.177-0.238-0.176-0.529 6e-4 -0.557 0.424-1.36 0.799-1.52 0.147-0.062 0.375-0.0567 0.53 0.0122 0.0947 0.0421 0.222 0.0578 0.479 0.0588 0.327 1e-3 0.363 8e-3 0.553 0.107 0.418 0.218 0.55 0.417 0.574 0.865 0.0372 0.709-0.378 1.28-1.01 1.38-0.191 0.0311-0.622 0.0366-0.833 0.0106zm3-0.727c-0.34-0.204-0.496-0.71-0.303-0.986 0.162-0.232 0.619-0.504 0.944-0.563 0.165-0.03 1.28-0.0388 1.28-0.0101 2e-5 5e-3 -0.0647 0.0883-0.144 0.185-0.231 0.284-0.441 0.59-0.559 0.817-0.268 0.514-0.846 0.779-1.22 0.556zm-11.5-0.519c-0.585-0.17-0.98-0.396-1.1-0.632-0.024-0.0458-0.0845-0.286-0.135-0.533-0.05-0.248-0.112-0.501-0.137-0.563-0.0255-0.0624-0.0375-0.122-0.0266-0.133 0.0109-0.0109 0.137-0.0251 0.28-0.0316 0.583-0.0265 1.15 0.283 1.37 0.75 0.098 0.208 0.168 0.572 0.168 0.874 0 0.38-0.0103 0.387-0.412 0.27zm6.25-0.168c-0.398-0.228-0.913-0.821-1.15-1.32-0.0908-0.194-0.108-0.272-0.119-0.547-0.0146-0.358 0.0328-0.576 0.194-0.896 0.14-0.277 0.171-0.294 0.34-0.183 0.335 0.222 0.593 0.596 0.711 1.03 0.0296 0.109 0.0667 0.401 0.0826 0.649s0.0513 0.585 0.0787 0.75c0.0791 0.476 0.0939 0.617 0.0649 0.616-0.0149-1.6e-4 -0.107-0.0462-0.205-0.102zm-3.62-0.424c-0.258-0.115-0.284-0.12-0.8-0.142-0.652-0.0283-0.821-0.0745-1.03-0.281-0.172-0.172-0.416-0.625-0.538-1-0.047-0.144-0.0815-0.265-0.0768-0.268 0.0343-0.0252 0.7 0.0664 0.96 0.132 0.916 0.231 1.47 0.634 1.69 1.22 0.0793 0.215 0.127 0.468 0.0868 0.463-0.0154-2e-3 -0.148-0.0572-0.295-0.123zm4.39 0.0507c-0.0829-0.0998-0.21-0.441-0.236-0.636-0.0351-0.256 7e-3 -0.614 0.0928-0.781 0.149-0.292 0.7-0.89 1.25-1.35 0.184-0.156 0.195-0.16 0.24-0.1 0.0947 0.126 0.244 0.467 0.28 0.637 0.0867 0.417-0.0883 0.703-0.722 1.18-0.331 0.247-0.549 0.502-0.734 0.857-0.103 0.198-0.136 0.237-0.167 0.2zm-3.2-0.615c-0.442-0.433-0.507-0.571-0.528-1.11-0.0167-0.423 0.012-0.578 0.246-1.33 0.127-0.407 0.148-0.427 0.339-0.328 0.116 0.0602 0.415 0.376 0.487 0.514 0.19 0.367 0.239 1.07 0.117 1.68-0.0676 0.337-0.24 0.844-0.299 0.881-0.0164 0.0102-0.18-0.128-0.363-0.308zm6.82 0.0888c-0.0311-0.0181-0.146-0.156-0.255-0.307s-0.243-0.307-0.298-0.347c-0.166-0.122-0.42-0.188-0.643-0.168-0.109 0.01-0.198 6e-3 -0.198-8e-3 0-0.0388 0.329-0.283 0.491-0.364 0.249-0.125 0.558-0.178 0.942-0.162 0.291 0.0123 0.412 0.0356 0.717 0.138 0.202 0.068 0.379 0.136 0.394 0.151 0.038 0.0378-0.445 0.667-0.67 0.872-0.241 0.22-0.357 0.267-0.48 0.195zm-8.45-1.09c-0.0641-0.0391-0.133-0.13-0.183-0.242-0.073-0.163-0.0798-0.218-0.0741-0.612 3e-3 -0.238 0.0262-0.523 0.0506-0.632l0.0443-0.199 0.163 0.212c0.0896 0.116 0.259 0.318 0.376 0.449 0.351 0.391 0.418 0.598 0.267 0.823-0.0916 0.136-0.304 0.263-0.441 0.263-0.055 2.3e-4 -0.146-0.0277-0.202-0.0621zm4.32-0.362c-0.0987-0.376-0.0698-0.805 0.0698-1.03 0.0364-0.0597 0.159-0.178 0.272-0.264 0.113-0.0852 0.26-0.206 0.326-0.269l0.121-0.114 0.0422 0.176c0.0556 0.232 0.049 0.611-0.0138 0.787-0.113 0.316-0.395 0.639-0.694 0.796-0.089 0.0465-0.0908 0.0454-0.123-0.078z" style="font-variant-east_asian:normal"/><text x="28.716818" y="291.62167" font-size="5.06px" letter-spacing="0px" text-align="center" word-spacing="0px" style="font-family:'Century Gothic', sans-serif;font-size:5.06px;letter-spacing:0px;line-height:3.41290975px;stroke-width:.265;text-align:center;text-anchor:middle;word-spacing:0px" xml:space="preserve"><tspan x="28.716818" y="291.62167" letter-spacing=".465px" text-align="start" style="fill:#94ac78;letter-spacing:.465px;stroke-width:.265;text-align:start;text-anchor:start">QUALIFIED</tspan></text></g></svg>
